<?xml version="1.0" standalone="no"?>
<!DOCTYPE svg PUBLIC "-//W3C//DTD SVG 20010904//EN"
 "http://www.w3.org/TR/2001/REC-SVG-20010904/DTD/svg10.dtd">
<svg version="1.0" xmlns="http://www.w3.org/2000/svg"
 width="360.000000pt" height="360.000000pt" viewBox="0 0 360.000000 360.000000"
 preserveAspectRatio="xMidYMid meet">
<metadata>
Created by potrace 1.11, written by Peter Selinger 2001-2013
</metadata>
<g transform="translate(0.000000,360.000000) scale(0.100000,-0.100000)"
fill="#000000" stroke="none">
<path d="M1620 3580 c-8 -5 -31 -10 -50 -10 -55 0 -224 -38 -340 -77 -195 -65
-388 -171 -555 -303 -74 -59 -235 -224 -298 -307 -117 -153 -232 -377 -282
-548 -9 -33 -21 -71 -25 -85 -7 -24 -16 -63 -40 -188 -5 -29 -10 -144 -10
-255 0 -208 10 -300 49 -447 32 -123 41 -151 82 -248 35 -85 52 -119 119 -237
55 -98 145 -210 270 -336 104 -104 163 -154 258 -217 210 -140 426 -230 655
-273 61 -11 135 -25 162 -31 58 -11 329 -5 425 10 338 52 625 176 885 383 87
68 261 252 326 344 156 220 264 474 311 733 8 48 28 265 28 312 0 47 -20 264
-28 312 -90 495 -378 923 -811 1202 -175 113 -440 214 -641 245 -41 7 -94 16
-118 21 -55 13 -353 13 -372 0z"/>
</g>
</svg>
